<svg width="25" height="23" viewBox="0 0 25 23" fill="#000" xmlns="http://www.w3.org/2000/svg"><path d="M22.902 3.743H18.57V.985h-1.576v2.758H7.54V.985H5.963v2.758H1.63A1.183 1.183 0 00.448 4.925V21.47a1.183 1.183 0 001.182 1.182h21.272a1.183 1.183 0 001.182-1.182V4.925a1.183 1.183 0 00-1.182-1.182zm-.394 17.333H2.024V5.32h3.939v1.97h1.576v-1.97h9.454v1.97h1.576v-1.97h3.94v15.757z" fill="#000"/><path d="M5.175 10.046h1.576v1.576H5.175v-1.576zM9.508 10.046h1.576v1.576H9.508v-1.576zM13.448 10.046h1.575v1.576h-1.575v-1.576zM17.781 10.046h1.576v1.576H17.78v-1.576zM5.175 13.591h1.576v1.576H5.175v-1.575zM9.508 13.591h1.576v1.576H9.508v-1.575zM13.448 13.591h1.575v1.576h-1.575v-1.575zM17.781 13.591h1.576v1.576H17.78v-1.575zM5.175 17.137h1.576v1.576H5.175v-1.576zM9.508 17.137h1.576v1.576H9.508v-1.576zM13.448 17.137h1.575v1.576h-1.575v-1.576zM17.781 17.137h1.576v1.576H17.78v-1.576z"/></svg>