<svg width="11" height="14" fill="#727272" xmlns="http://www.w3.org/2000/svg"><path fill-rule="evenodd" clip-rule="evenodd" d="M2.653 2.41v-.835h4.174v.834H2.653zM2.445.74a.626.626 0 00-.626.626v.209H1.4A1.252 1.252 0 00.15 2.827v8.346a1.252 1.252 0 001.252 1.252h2.922v-.834H1.4a.418.418 0 01-.417-.418V2.827a.417.417 0 01.417-.418h.418v.209c0 .346.28.626.626.626h4.59a.626.626 0 00.626-.626v-.209h.418a.417.417 0 01.417.418v3.756h.835V2.827a1.252 1.252 0 00-1.252-1.252H7.66v-.209A.626.626 0 007.035.74h-4.59zm3.547 7.095a.417.417 0 11-.835 0 .417.417 0 01.835 0zm1.252.417a.417.417 0 100-.835.417.417 0 000 .835zm2.087-.417a.417.417 0 11-.835 0 .417.417 0 01.835 0zm1.252.417a.417.417 0 100-.834.417.417 0 000 .834zM11 9.504a.417.417 0 11-.835 0 .417.417 0 01.835 0zm-.417 2.087a.417.417 0 100-.835.417.417 0 000 .835zm0 1.669a.417.417 0 100-.834.417.417 0 000 .834zM5.575 9.92a.417.417 0 100-.834.417.417 0 000 .834zm.417 1.252a.417.417 0 11-.835 0 .417.417 0 01.835 0zm-.417 2.087a.417.417 0 100-.834.417.417 0 000 .834zm2.086-.417a.417.417 0 11-.834 0 .417.417 0 01.834 0zm1.252.417a.417.417 0 100-.834.417.417 0 000 .834z" /></svg>