<svg width="22" height="22" viewBox="0 0 22 22" fill="#000" xmlns="http://www.w3.org/2000/svg"><path d="M4.763 16.757l4.969-.017L20.577 5.998c.426-.425.66-.99.66-1.592 0-.601-.234-1.166-.66-1.592l-1.785-1.786c-.852-.851-2.337-.847-3.181-.003L4.763 11.769v4.988zM17.199 2.62l1.79 1.783-1.799 1.781L15.405 4.4l1.794-1.779zM7.015 12.708l6.79-6.725 1.785 1.785-6.788 6.724-1.787.005v-1.789z" fill="#000"/><path d="M2.51 21.247h15.765a2.254 2.254 0 002.252-2.252v-9.76l-2.252 2.251v7.509H6.067c-.03 0-.06.01-.09.01-.036 0-.074-.01-.112-.01H2.511V3.23h7.71L12.473.979H2.51A2.254 2.254 0 00.259 3.23v15.764a2.254 2.254 0 002.252 2.252z" /></svg>