<svg viewBox="0 0 22 21" xmlns="http://www.w3.org/2000/svg"><path d="M11.164 5.023H9.997a.195.195 0 00-.194.194v6.676c0 .063.03.121.08.158l4.009 2.927a.194.194 0 00.271-.041l.694-.946a.191.191 0 00-.041-.272l-3.458-2.5V5.217a.195.195 0 00-.194-.194zm5.33 1.824l3.802.928c.122.03.24-.063.24-.186l.02-3.917a.193.193 0 00-.313-.153l-3.822 2.986a.193.193 0 00-.02.288.194.194 0 00.093.054zm4.067 7.301l-1.375-.473a.194.194 0 00-.245.117 8.52 8.52 0 01-1.986 3.094 8.56 8.56 0 01-6.068 2.515 8.56 8.56 0 01-6.068-2.515 8.601 8.601 0 01-1.84-2.728 8.571 8.571 0 01-.67-3.34c0-1.158.226-2.284.675-3.341a8.52 8.52 0 011.84-2.728 8.56 8.56 0 016.066-2.515 8.56 8.56 0 016.761 3.298l1.45-1.135A10.399 10.399 0 0010.885.391 10.409 10.409 0 00.467 10.926c.058 5.71 4.702 10.32 10.422 10.32 4.499 0 8.33-2.851 9.79-6.845a.198.198 0 00-.118-.253z"/></svg>