<svg width="26" height="22" fill="none" xmlns="http://www.w3.org/2000/svg"><path d="M17.596 8.33a5.082 5.082 0 015.103 5.103c0 .998-.283 1.94-.782 2.722l3.493 3.515-1.577 1.576-3.538-3.481a5.1 5.1 0 01-2.7.771 5.082 5.082 0 01-5.102-5.103 5.082 5.082 0 015.103-5.104zm0 2.268a2.835 2.835 0 100 5.67 2.835 2.835 0 000-5.67zm-6.805 5.67H2.286V4.928l8.642 5.397a7.355 7.355 0 016.668-4.264c.306 0 .612 0 .919.068l1.916-1.202v1.701c.85.352 1.61.874 2.268 1.497V2.66A2.275 2.275 0 0020.431.391H2.286A2.275 2.275 0 00.018 2.659v13.609a2.275 2.275 0 002.268 2.268h10.002a7.66 7.66 0 01-1.497-2.268zm9.64-13.609l-9.073 5.67-9.072-5.67h18.145z" fill="#000"/></svg>