<svg width="19" height="22" viewBox="0 0 19 22" fill="#000" xmlns="http://www.w3.org/2000/svg"><path d="M13.764 11.315a4.967 4.967 0 00-4.966 4.966 4.967 4.967 0 004.966 4.966 4.967 4.967 0 004.965-4.966 4.967 4.967 0 00-4.965-4.966zm1.638 7.3l-2.135-2.135v-3.178h.993v2.77l1.837 1.838-.695.705zm-.645-16.238h-3.158C11.18 1.225 10.089.391 8.798.391c-1.291 0-2.383.834-2.8 1.986H2.838A1.992 1.992 0 00.853 4.363V19.26c0 1.093.894 1.986 1.986 1.986h6.068a6.696 6.696 0 01-1.41-1.986H2.839V4.363h1.987v2.98h7.945v-2.98h1.986V9.41c.705.099 1.37.307 1.986.595v-5.64a1.992 1.992 0 00-1.986-1.987zM8.798 4.363a.996.996 0 01-.993-.993c0-.546.447-.993.993-.993s.993.447.993.993a.996.996 0 01-.993.993z" /></svg>