<svg width="25" height="24" viewBox="0 0 25 24" fill="#000" xmlns="http://www.w3.org/2000/svg"><path d="M21.057 9.652h-1.14a.229.229 0 00-.229.228v1.14c0 .126.103.229.228.229h1.14a.229.229 0 00.229-.229V9.88a.229.229 0 00-.228-.228zm.912-2.966h-3.422V.642a.229.229 0 00-.228-.229H6.23a.229.229 0 00-.227.229v6.044H2.58A2.28 2.28 0 00.299 8.967v9.353c0 .505.408.912.912.912h4.79v3.764c0 .126.103.228.229.228h12.09a.229.229 0 00.227-.228v-3.764h4.79a.911.911 0 00.913-.912V8.967a2.28 2.28 0 00-2.28-2.28zM7.94 2.352h8.668v4.334H7.94V2.352zm8.668 18.933H7.94v-7.87h8.668v7.87zm5.703-3.992h-3.764v-5.816H6.002v5.816H2.238V8.967c0-.188.154-.342.342-.342h19.39c.187 0 .341.154.341.342v8.326z" /></svg>