<svg width="25" height="21" xmlns="http://www.w3.org/2000/svg"><path d="M24.501 4.066H21.04C20.618 2.124 18.93.689 16.904.689c-2.026 0-3.715 1.435-4.137 3.377H.865v1.688h11.902c.422 1.941 2.11 3.377 4.137 3.377 2.026 0 3.714-1.436 4.136-3.377h3.461V4.066zm-7.597 3.376c-1.435 0-2.533-1.097-2.533-2.532s1.098-2.533 2.533-2.533c1.435 0 2.532 1.098 2.532 2.533 0 1.435-1.097 2.532-2.532 2.532zM.865 17.572h3.46c.423 1.942 2.111 3.377 4.137 3.377 2.026 0 3.714-1.435 4.136-3.377h11.903v-1.688H12.598c-.422-1.942-2.11-3.377-4.136-3.377-2.026 0-3.714 1.435-4.136 3.377H.865v1.688zm7.597-3.377c1.435 0 2.533 1.098 2.533 2.533 0 1.435-1.098 2.532-2.533 2.532-1.435 0-2.532-1.097-2.532-2.532s1.097-2.533 2.532-2.533z"/></svg>