<svg width="22" height="22" viewBox="0 0 22 22" fill="#000" xmlns="http://www.w3.org/2000/svg"><path d="M15.863.391a4.01 4.01 0 014.01 4.01v2.82a8.788 8.788 0 00-5.614-2.017h4.01v-.802a2.406 2.406 0 00-2.406-2.407H4.633a2.406 2.406 0 00-2.406 2.407v.802h12.032a8.786 8.786 0 00-5.074 1.604H2.227v8.824a2.406 2.406 0 002.406 2.406h1.765a8.877 8.877 0 001.054 1.604H4.633a4.01 4.01 0 01-4.01-4.01V4.402A4.01 4.01 0 014.633.39h11.23z" fill="#000"/><path d="M21.478 14.027a7.22 7.22 0 11-14.438 0 7.22 7.22 0 0114.438 0zm-4.245-1.838a.804.804 0 00-1.136-1.136l-1.838 1.84-1.839-1.84a.803.803 0 00-1.135 1.136l1.84 1.838-1.84 1.839a.803.803 0 101.135 1.136l1.839-1.84 1.838 1.84a.803.803 0 101.136-1.136l-1.84-1.839 1.84-1.838z" /></svg>